<?xml version="1.0" encoding="utf-8"?>
<!-- Generator: Adobe Illustrator 22.0.0, SVG Export Plug-In . SVG Version: 6.00 Build 0)  -->
<svg version="1.1" id="图层_1" xmlns="http://www.w3.org/2000/svg" xmlns:xlink="http://www.w3.org/1999/xlink" x="0px" y="0px"
	 viewBox="0 0 24 24" style="enable-background:new 0 0 24 24;" xml:space="preserve">
<style type="text/css">
	.st0{fill:#999999;}
</style>
<path class="st0" d="M20,24H4c-1.7,0-3-1.3-3-3V3c0-1.7,1.3-3,3-3h16c1.7,0,3,1.3,3,3v18C23,22.7,21.6,24,20,24z M4,2
	C3.4,2,3,2.4,3,3v18c0,0.6,0.4,1,1,1h16c0.6,0,1-0.4,1-1V3c0-0.6-0.4-1-1-1H4z M15.6,13.1H13V11h2.6c0.6,0,1-0.4,1-1s-0.4-1-1-1
	h-2.1l2-2c0.4-0.4,0.4-1,0-1.4c-0.4-0.4-1-0.4-1.4,0L12,7.7L9.8,5.6c-0.4-0.4-1-0.4-1.4,0C8,5.9,8,6.6,8.4,7l2,2h-2
	c-0.6,0-1,0.4-1,1s0.4,1,1,1H11v2.1H8.4c-0.6,0-1,0.4-1,1s0.4,1,1,1H11v2.7c0,0.6,0.4,1,1,1s1-0.4,1-1v-2.7h2.6c0.6,0,1-0.4,1-1
	S16.1,13.1,15.6,13.1z"/>
</svg>
