<?xml version="1.0" encoding="utf-8"?>
<!-- Generator: Adobe Illustrator 22.0.0, SVG Export Plug-In . SVG Version: 6.00 Build 0)  -->
<svg version="1.1" id="图层_1" xmlns="http://www.w3.org/2000/svg" xmlns:xlink="http://www.w3.org/1999/xlink" x="0px" y="0px"
	 viewBox="0 0 24 24" style="enable-background:new 0 0 24 24;" xml:space="preserve">
<style type="text/css">
	.st0{fill:#999999;}
</style>
<path class="st0" d="M19.2,3h-2.4V2c0-1.1-0.9-2-2-2H9.2c-1.1,0-2,0.9-2,2v1H4.8C3.4,3,2.3,4.1,2.3,5.6v15.9c0,1.4,1.1,2.6,2.5,2.6
	h14.4c1.4,0,2.5-1.2,2.5-2.6V5.6C21.7,4.1,20.6,3,19.2,3z M14.8,2v2.6H9.2l0-2.6H14.8z M19.7,21.4c0,0.3-0.2,0.6-0.5,0.6H4.8
	c-0.3,0-0.5-0.3-0.5-0.6V5.6C4.3,5.2,4.5,5,4.8,5h2.4v1.6h9.6V5h2.4c0.3,0,0.5,0.3,0.5,0.6V21.4z M10.7,17.8L6.8,14
	c-0.4-0.4-0.4-1,0-1.4c0.4-0.4,1-0.4,1.4,0l2.5,2.4l5.2-5.1c0.4-0.4,1-0.4,1.4,0c0.4,0.4,0.4,1,0,1.4L10.7,17.8z"/>
</svg>
