<?xml version="1.0" encoding="utf-8"?>
<!-- Generator: Adobe Illustrator 22.0.0, SVG Export Plug-In . SVG Version: 6.00 Build 0)  -->
<svg version="1.1" id="图层_1" xmlns="http://www.w3.org/2000/svg" xmlns:xlink="http://www.w3.org/1999/xlink" x="0px" y="0px"
	 viewBox="0 0 24 24" style="enable-background:new 0 0 24 24;" xml:space="preserve">
<style type="text/css">
	.st0{clip-path:url(#SVGID_2_);fill:none;stroke:#128CE6;stroke-width:2;stroke-miterlimit:10;}
	.st1{fill:#999999;}
</style>
<g>
	<defs>
		<rect id="SVGID_1_" x="-607" y="-406" width="1237" height="836"/>
	</defs>
	<clipPath id="SVGID_2_">
		<use xlink:href="#SVGID_1_"  style="overflow:visible;"/>
	</clipPath>
	<circle class="st0" cx="-26" cy="-95" r="10"/>
	<path class="st0" d="M-26.5-104.8c-2.6,2.5-4.1,6-4.1,9.8c0,3.8,1.6,7.2,4.1,9.7"/>
	<path class="st0" d="M-26-105c2.6,2.5,4.1,6,4.1,9.8c0,3.8-1.6,7.2-4.1,9.7"/>
	<line class="st0" x1="-34.8" y1="-99.2" x2="-17.2" y2="-99.2"/>
	<line class="st0" x1="-34.8" y1="-90.8" x2="-17.2" y2="-90.8"/>
</g>
<path class="st1" d="M18.6,3.7h-2.3C15.8,2.1,14.3,1,12.6,1h-1.2C9.7,1,8.2,2.1,7.7,3.7H5.4C4.1,3.7,3,4.8,3,6.1v14.4
	C3,21.9,4.1,23,5.4,23h13.2c1.3,0,2.4-1.1,2.4-2.4V6.1C21,4.8,19.9,3.7,18.6,3.7z M9.5,4.9c0-1,0.8-1.9,1.9-1.9h1.2
	c1,0,1.9,0.8,1.9,1.9v0.3h-5V4.9z M19,20.6c0,0.2-0.2,0.4-0.4,0.4H5.4C5.2,21,5,20.8,5,20.6V6.1c0-0.2,0.2-0.4,0.4-0.4h2.1v1.4h9
	V5.7h2.1c0.2,0,0.4,0.2,0.4,0.4V20.6z M16.6,13.4c0,0.6-0.4,1-1,1H13V17c0,0.6-0.4,1-1,1s-1-0.4-1-1v-2.6H8.4c-0.6,0-1-0.4-1-1
	s0.4-1,1-1H11V9.7c0-0.6,0.4-1,1-1s1,0.4,1,1v2.6h2.6C16.1,12.4,16.6,12.8,16.6,13.4z"/>
</svg>
