<?xml version="1.0" encoding="utf-8"?>
<!-- Generator: Adobe Illustrator 22.0.0, SVG Export Plug-In . SVG Version: 6.00 Build 0)  -->
<svg version="1.1" id="图层_1" xmlns="http://www.w3.org/2000/svg" xmlns:xlink="http://www.w3.org/1999/xlink" x="0px" y="0px"
	 viewBox="0 0 24 24" style="enable-background:new 0 0 24 24;" xml:space="preserve">
<style type="text/css">
	.st0{fill:#999999;}
</style>
<path class="st0" d="M21.9,18.2l-1-1.5v-5.6c0-3.8-2.5-7.1-5.9-8.3C14.9,1.3,13.6,0,12,0S9,1.3,9,2.9c-3.3,1.3-5.7,4.5-5.7,8.3v5.6
	l-1.2,1.8c-0.3,0.4-0.4,1-0.1,1.5S2.8,21,3.4,21h4.7c0.4,1.7,2,3,3.9,3s3.5-1.3,3.9-3h4.5c0.7,0,1.3-0.4,1.6-0.9
	S22.3,18.7,21.9,18.2z M12,2c0.3,0,0.6,0.1,0.8,0.4c-0.2,0-0.5,0-0.7,0c-0.3,0-0.6,0-0.9,0C11.4,2.1,11.7,2,12,2z M12,22
	c-0.8,0-1.4-0.4-1.8-1h3.6C13.4,21.6,12.8,22,12,22z M4.2,19L5,17.7c0.2-0.2,0.2-0.5,0.2-0.8v-5.7c0-3.8,3.1-6.8,6.8-6.8
	c3.8,0,6.8,3.1,6.8,6.8v5.7c0,0.3,0.1,0.6,0.2,0.8l1,1.3H4.2z"/>
</svg>
