<?xml version="1.0" encoding="utf-8"?>
<!-- Generator: Adobe Illustrator 22.0.0, SVG Export Plug-In . SVG Version: 6.00 Build 0)  -->
<svg version="1.1" id="图层_1" xmlns="http://www.w3.org/2000/svg" xmlns:xlink="http://www.w3.org/1999/xlink" x="0px" y="0px"
	 viewBox="0 0 24 24" style="enable-background:new 0 0 24 24;" xml:space="preserve">
<style type="text/css">
	.st0{fill:#999999;}
</style>
<path class="st0" d="M12,2C6.5,2,2,6.5,2,12c0,5.5,4.5,10,10,10c5.5,0,10-4.5,10-10C22,6.5,17.5,2,12,2z M10.3,17h3.5
	c-0.5,1-1,1.9-1.7,2.6C11.3,18.9,10.7,18,10.3,17z M9.5,15c-0.3-1-0.4-2-0.4-3c0-1,0.1-2,0.4-3h4.9c0.2,1,0.4,2,0.4,3
	c0,1-0.1,2-0.4,3H9.5z M4,12c0-1.1,0.2-2.1,0.6-3h2.9c-0.2,1-0.3,2-0.3,3c0,1,0.1,2,0.3,3H4.6C4.2,14.1,4,13.1,4,12z M12,4.4
	C12.7,5.1,13.3,6,13.7,7h-3.5C10.7,6,11.3,5.1,12,4.4z M16.5,9h2.9c0.4,0.9,0.6,1.9,0.6,3s-0.2,2.1-0.6,3h-2.9c0.2-1,0.3-2,0.3-3
	C16.8,11,16.7,10,16.5,9z M18.2,7h-2.3c-0.4-0.9-0.8-1.8-1.3-2.6C16,4.9,17.3,5.8,18.2,7z M9.4,4.4C8.9,5.2,8.5,6.1,8.1,7H5.8
	C6.7,5.8,8,4.9,9.4,4.4z M5.8,17h2.3c0.4,0.9,0.8,1.8,1.3,2.6C8,19.1,6.7,18.2,5.8,17z M14.6,19.6c0.5-0.8,1-1.7,1.3-2.6h2.3
	C17.3,18.2,16,19.1,14.6,19.6z"/>
</svg>
