<?xml version="1.0" encoding="utf-8"?>
<!-- Generator: Adobe Illustrator 22.0.0, SVG Export Plug-In . SVG Version: 6.00 Build 0)  -->
<svg version="1.1" id="图层_1" xmlns="http://www.w3.org/2000/svg" xmlns:xlink="http://www.w3.org/1999/xlink" x="0px" y="0px"
	 viewBox="0 0 24 24" style="enable-background:new 0 0 24 24;" xml:space="preserve">
<style type="text/css">
	.st0{fill:#999999;}
</style>
<path class="st0" d="M17.5,8.3h-11c-1.1,0-2,0.9-2,2v10c0,1.1,0.9,2,2,2h11c1.1,0,2-0.9,2-2v-10C19.5,9.2,18.6,8.3,17.5,8.3z
	 M6.5,20.3v-10h11v10H6.5z M10.8,12.9v4c0,0.6-0.4,1-1,1s-1-0.4-1-1v-4c0-0.6,0.4-1,1-1S10.8,12.4,10.8,12.9z M15.2,12.9v4
	c0,0.6-0.4,1-1,1s-1-0.4-1-1v-4c0-0.6,0.4-1,1-1S15.2,12.4,15.2,12.9z M20,4.8h-3.4v-1c0-1.1-0.9-2-2-2H9.4c-1.1,0-2,0.9-2,2v1H4
	c-0.6,0-1,0.4-1,1s0.4,1,1,1h3.4h9.1H20c0.6,0,1-0.4,1-1S20.6,4.8,20,4.8z M9.4,4.8v-1h5.1v1H9.4z"/>
</svg>
