<?xml version="1.0" encoding="utf-8"?>
<!-- Generator: Adobe Illustrator 22.0.0, SVG Export Plug-In . SVG Version: 6.00 Build 0)  -->
<svg version="1.1" id="图层_1" xmlns="http://www.w3.org/2000/svg" xmlns:xlink="http://www.w3.org/1999/xlink" x="0px" y="0px"
	 viewBox="0 0 24 24" style="enable-background:new 0 0 24 24;" xml:space="preserve">
<style type="text/css">
	.st0{fill:#999999;}
</style>
<path class="st0" d="M4,14.8c-1.5,0-2.8-1.2-2.8-2.8S2.5,9.2,4,9.2s2.8,1.2,2.8,2.8S5.5,14.8,4,14.8z M4,10.8
	c-0.7,0-1.2,0.6-1.2,1.2s0.6,1.2,1.2,1.2s1.2-0.6,1.2-1.2S4.7,10.8,4,10.8z M12,14.8c-1.5,0-2.8-1.2-2.8-2.8s1.2-2.8,2.8-2.8
	s2.8,1.2,2.8,2.8S13.5,14.8,12,14.8z M12,10.8c-0.7,0-1.2,0.6-1.2,1.2s0.6,1.2,1.2,1.2s1.2-0.6,1.2-1.2S12.7,10.8,12,10.8z M20,14.8
	c-1.5,0-2.8-1.2-2.8-2.8s1.2-2.8,2.8-2.8s2.8,1.2,2.8,2.8S21.5,14.8,20,14.8z M20,10.8c-0.7,0-1.2,0.6-1.2,1.2s0.6,1.2,1.2,1.2
	s1.2-0.6,1.2-1.2S20.7,10.8,20,10.8z"/>
</svg>
