<?xml version="1.0" encoding="utf-8"?>
<!-- Generator: Adobe Illustrator 22.0.0, SVG Export Plug-In . SVG Version: 6.00 Build 0)  -->
<svg version="1.1" id="图层_1" xmlns="http://www.w3.org/2000/svg" xmlns:xlink="http://www.w3.org/1999/xlink" x="0px" y="0px"
	 viewBox="0 0 24 24" style="enable-background:new 0 0 24 24;" xml:space="preserve">
<style type="text/css">
	.st0{fill:#999999;}
</style>
<path class="st0" d="M8.6,22.4l-0.5-0.2C7.6,22,7,21.8,6.5,21.5c-0.5-0.3-1-0.6-1.5-1l-0.4-0.4L5,17.5c0.1-0.9-0.4-1.8-1.3-2.2
	l-2.5-1l-0.1-0.6c-0.2-1.1-0.2-2.3,0-3.5l0.1-0.6l2.5-1C4.6,8.4,5.2,7.5,5,6.6L4.6,4L5,3.6c0.9-0.7,1.9-1.3,3-1.8l0.5-0.2l2.1,1.7
	c0.7,0.6,1.8,0.6,2.5,0l2.1-1.7l0.5,0.2c0.5,0.2,1.1,0.4,1.6,0.7c0.5,0.3,1,0.6,1.5,1l0.4,0.4L19,6.5c-0.1,0.9,0.4,1.8,1.3,2.2
	l2.5,1l0.1,0.6c0.2,1.2,0.2,2.3,0,3.5l-0.1,0.6l-2.6,1c-0.9,0.3-1.4,1.2-1.2,2.2l0.4,2.7l-0.4,0.4c-0.9,0.7-1.9,1.3-3,1.8l-0.5,0.2
	l-2.1-1.7c-0.7-0.6-1.8-0.6-2.5,0L8.6,22.4z M6.8,19.3c0.2,0.2,0.5,0.3,0.7,0.5C7.8,19.9,8,20,8.3,20.2l1.2-1c1.5-1.2,3.5-1.2,5,0
	l1.2,1c0.5-0.2,1.1-0.5,1.5-0.9L17,17.7c-0.3-1.8,0.7-3.6,2.5-4.3l1.5-0.6c0.1-0.6,0.1-1.2,0-1.7l-1.4-0.5C17.8,9.8,16.7,8,17,6.2
	l0.2-1.5c-0.2-0.2-0.5-0.3-0.7-0.5C16.2,4.1,16,4,15.7,3.8l-1.2,1C13,6,11,6,9.5,4.9l-1.2-1C7.7,4.1,7.2,4.4,6.8,4.8L7,6.3
	c0.3,1.8-0.7,3.6-2.5,4.3L3,11.2C3,11.8,3,12.4,3,12.9l1.4,0.5C6.2,14.1,7.3,16,7,17.8L6.8,19.3z M21.9,13.5L21.9,13.5L21.9,13.5z
	 M12,16c-0.7,0-1.3-0.2-2-0.5c-0.9-0.5-1.6-1.4-1.9-2.4C7.8,12,8,11,8.5,10c1.1-1.9,3.6-2.6,5.5-1.5c0.9,0.5,1.6,1.4,1.9,2.4
	c0.3,1,0.1,2.1-0.4,3l0,0C14.7,15.3,13.4,16,12,16z M12,10c-0.7,0-1.4,0.4-1.8,1c-0.3,0.5-0.3,1-0.2,1.5c0.1,0.5,0.5,0.9,0.9,1.2
	c1,0.5,2.2,0.2,2.7-0.8l0,0c0.3-0.5,0.3-1,0.2-1.5c-0.1-0.5-0.5-0.9-0.9-1.2C12.7,10.1,12.4,10,12,10z M14.6,13.5L14.6,13.5
	L14.6,13.5z"/>
</svg>
