<?xml version="1.0" encoding="utf-8"?>
<!-- Generator: Adobe Illustrator 22.0.0, SVG Export Plug-In . SVG Version: 6.00 Build 0)  -->
<svg version="1.1" id="图层_1" xmlns="http://www.w3.org/2000/svg" xmlns:xlink="http://www.w3.org/1999/xlink" x="0px" y="0px"
	 viewBox="0 0 24 24" style="enable-background:new 0 0 24 24;" xml:space="preserve">
<style type="text/css">
	.st0{fill:#F8F8F8;}
</style>
<path class="st0" d="M21,6.3H3c-0.6,0-1-0.4-1-1l0,0c0-0.6,0.4-1,1-1h18c0.6,0,1,0.4,1,1l0,0C22,5.9,21.6,6.3,21,6.3z M22,12.3
	L22,12.3c0-0.6-0.4-1-1-1H3c-0.6,0-1,0.4-1,1l0,0c0,0.6,0.4,1,1,1h18C21.6,13.3,22,12.9,22,12.3z M22,19.3L22,19.3c0-0.6-0.4-1-1-1
	H3c-0.6,0-1,0.4-1,1l0,0c0,0.6,0.4,1,1,1h18C21.6,20.3,22,19.9,22,19.3z"/>
</svg>
